<?xml version="1.0" ?><svg id="Capa_1" style="enable-background:new 0 0 512 512;" version="1.1" viewBox="0 0 512 512" xml:space="preserve" xmlns="http://www.w3.org/2000/svg" xmlns:xlink="http://www.w3.org/1999/xlink"><path d="M502,186v280c0,11.05-8.95,20-20,20H30c-11.05,0-20-8.95-20-20V186H502z" style="fill:#C0E3F0;"/><path d="M482,106H30c-11.05,0-20,8.95-20,20v60h492v-60C502,114.95,493.05,106,482,106z" style="fill:#4DBBEB;"/><path d="M296,106v20h-80v-20V66c0-22.09,17.91-40,40-40c11.04,0,21.04,4.48,28.28,11.72S296,54.96,296,66V106  z" style="fill:#C0E3F0;"/><path d="M236,226H70c-11.05,0-20,8.95-20,20v160c0,11.05,8.95,20,20,20h166c11.05,0,20-8.95,20-20V246  C256,234.95,247.05,226,236,226z" style="fill:#FEB756;"/><g><path d="M195.43,363.57C184.57,352.72,169.57,346,153,346c-33.14,0-60,26.86-60,60v20h120v-20   C213,389.43,206.28,374.43,195.43,363.57z" style="fill:#57555C;"/><circle cx="153" cy="306" r="40" style="fill:#57555C;"/></g><path d="M439,416c-5.52,0-10,4.48-10,10s4.48,10,10,10s10-4.48,10-10S444.52,416,439,416z"/><path d="M376,416c-5.52,0-10,4.48-10,10s4.48,10,10,10s10-4.48,10-10S381.52,416,376,416z"/><path d="M316,256c5.52,0,10-4.48,10-10s-4.48-10-10-10s-10,4.48-10,10S310.48,256,316,256z"/><path d="M316,416c-5.52,0-10,4.48-10,10s4.48,10,10,10s10-4.48,10-10S321.52,416,316,416z"/><path d="M256,56c-5.52,0-10,4.48-10,10s4.48,10,10,10c5.52,0,10-4.48,10-10S261.52,56,256,56z"/><path d="M439,236h-83c-5.522,0-10,4.478-10,10s4.478,10,10,10h83c5.522,0,10-4.478,10-10S444.522,236,439,236z"/><path d="M439,296H316c-5.522,0-10,4.478-10,10s4.478,10,10,10h123c5.522,0,10-4.478,10-10S444.522,296,439,296z"/><path d="M439,356H316c-5.522,0-10,4.478-10,10s4.478,10,10,10h123c5.522,0,10-4.478,10-10S444.522,356,439,356z"/><path d="M482,96H306V66c0-13.349-5.202-25.903-14.649-35.352C281.903,21.202,269.349,16,256,16c-27.57,0-50,22.43-50,50v30H30  c-16.542,0-30,13.458-30,30v340c0,16.542,13.458,30,30,30h452c16.542,0,30-13.458,30-30V126C512,109.458,498.542,96,482,96z M226,66  c0-16.542,13.458-30,30-30c8.008,0,15.54,3.122,21.209,8.79C282.878,50.46,286,57.992,286,66v50h-60V66z M30,116h176v10  c0,5.522,4.477,10,10,10h80c5.522,0,10-4.478,10-10v-10h176c5.514,0,10,4.486,10,10v50H20v-50C20,120.486,24.486,116,30,116z   M482,476H30c-5.514,0-10-4.486-10-10V196h472v270C492,471.514,487.514,476,482,476z"/><path d="M236,216H70c-16.542,0-30,13.458-30,30v160c0,16.542,13.458,30,30,30h23h120h23c16.542,0,30-13.458,30-30V246  C266,229.458,252.542,216,236,216z M123,306c0-16.542,13.458-30,30-30s30,13.458,30,30s-13.458,30-30,30S123,322.542,123,306z   M203,416H103v-10c0-27.57,22.43-50,50-50c13.352,0,25.91,5.201,35.356,14.639C197.799,380.09,203,392.648,203,406V416z M246,406  c0,5.514-4.486,10-10,10h-13v-10c0-18.69-7.279-36.269-20.502-49.504c-5.089-5.084-10.825-9.279-17.017-12.53  C196.193,334.789,203,321.178,203,306c0-27.57-22.43-50-50-50s-50,22.43-50,50c0,15.198,6.824,28.823,17.559,38.001  C98.255,355.719,83,379.105,83,406v10H70c-5.514,0-10-4.486-10-10V246c0-5.514,4.486-10,10-10h166c5.514,0,10,4.486,10,10V406z"/><g/><g/><g/><g/><g/><g/><g/><g/><g/><g/><g/><g/><g/><g/><g/></svg>