<svg xmlns="http://www.w3.org/2000/svg" viewBox="0 0 64 64"><defs><style>.cls-1{fill:#cfd8dd;}.cls-2{fill:#92a6ad;}.cls-3{fill:#37474f;}.cls-4{fill:#78909c;}.cls-5{fill:#74d800;}.cls-6{fill:#ffda00;}.cls-7{fill:#f74f80;}</style></defs><title>Code</title><g id="Layer_2" data-name="Layer 2"><g id="Layer_1-2" data-name="Layer 1"><path class="cls-1" d="M4,0H60a4,4,0,0,1,4,4v8a0,0,0,0,1,0,0H0a0,0,0,0,1,0,0V4A4,4,0,0,1,4,0Z"/><circle class="cls-2" cx="6" cy="6" r="2"/><circle class="cls-2" cx="12" cy="6" r="2"/><circle class="cls-2" cx="18" cy="6" r="2"/><path class="cls-3" d="M0,12H64a0,0,0,0,1,0,0V60a4,4,0,0,1-4,4H4a4,4,0,0,1-4-4V12A0,0,0,0,1,0,12Z"/><rect class="cls-4" x="6" y="18" width="10" height="2"/><rect class="cls-4" x="10" y="22" width="22" height="2"/><rect class="cls-4" x="10" y="50" width="26" height="2"/><rect class="cls-4" x="10" y="26" width="28" height="2"/><rect class="cls-4" x="14" y="30" width="36" height="2"/><rect class="cls-4" x="14" y="34" width="28" height="2"/><rect class="cls-4" x="14" y="38" width="20" height="2"/><rect class="cls-4" x="14" y="42" width="26" height="2"/><rect class="cls-4" x="10" y="46" width="6" height="2"/><rect class="cls-4" x="6" y="54" width="6" height="2"/><rect class="cls-5" x="12" y="18" width="6" height="2"/><rect class="cls-5" x="16" y="22" width="8" height="2"/><rect class="cls-5" x="26" y="26" width="8" height="2"/><rect class="cls-5" x="22" y="30" width="8" height="2"/><rect class="cls-5" x="34" y="34" width="6" height="2"/><rect class="cls-5" x="28" y="38" width="6" height="2"/><rect class="cls-6" x="14" y="38" width="6" height="2"/><rect class="cls-6" x="14" y="30" width="6" height="2"/><rect class="cls-6" x="14" y="34" width="6" height="2"/><rect class="cls-6" x="10" y="26" width="6" height="2"/><rect class="cls-6" x="10" y="50" width="6" height="2"/><rect class="cls-5" x="14" y="42" width="6" height="2"/><rect class="cls-5" x="20" y="50" width="6" height="2"/><rect class="cls-7" x="24" y="34" width="6" height="2"/><rect class="cls-7" x="18" y="26" width="6" height="2"/><rect class="cls-7" x="28" y="42" width="6" height="2"/><rect class="cls-7" x="26" y="50" width="6" height="2"/><rect class="cls-7" x="44" y="30" width="6" height="2"/></g></g></svg>