<svg enable-background="new 0 0 256 256" height="512" viewBox="0 0 256 256" width="512" xmlns="http://www.w3.org/2000/svg"><g id="Layer_10"><g><g><g><path d="m137.484 87.426v136.278c0 2.684 2.176 4.86 4.86 4.86h106.296c2.684 0 4.86-2.176 4.86-4.86v-136.278z" fill="#edf4fc"/></g></g><g><g><path d="m2.5 56.698v136.278c0 2.684 2.176 4.86 4.86 4.86h106.297c2.684 0 4.86-2.176 4.86-4.86v-136.278z" fill="#edf4fc"/></g></g><g><g><path d="m248.64 68.242h-106.296c-2.684 0-4.86 2.176-4.86 4.86v14.324h116.016v-14.324c0-2.684-2.176-4.86-4.86-4.86z" fill="#5290db"/></g></g><g><g><path d="m113.656 37.514h-106.296c-2.684 0-4.86 2.176-4.86 4.86v14.324h116.016v-14.325c0-2.683-2.176-4.859-4.86-4.859z" fill="#5290db"/></g></g><g><g><circle cx="195.492" cy="153.41" fill="#87d147" r="37.63"/></g></g><g><g><circle cx="60.508" cy="122.682" fill="#fc657e" r="37.63"/></g></g><g><g><g><path d="m187.486 171.047-12.742-12.742c-2.226-2.226-2.226-5.835 0-8.06 2.224-2.225 5.835-2.225 8.059 0l8.713 8.712 18.623-18.623c2.224-2.225 5.835-2.225 8.059 0 2.226 2.226 2.226 5.835 0 8.06l-22.653 22.652c-2.224 2.227-5.835 2.227-8.059.001z" fill="#edf4fc"/></g></g></g><g><g><path d="m60.508 115.105-9.622-9.622c-2.092-2.092-5.485-2.092-7.577 0s-2.092 5.484 0 7.577l9.622 9.622-9.622 9.622c-2.092 2.092-2.092 5.485 0 7.577s5.485 2.092 7.577 0l9.622-9.622 9.622 9.622c2.092 2.092 5.485 2.092 7.577 0s2.092-5.484 0-7.577l-9.622-9.622 9.622-9.622c2.092-2.092 2.092-5.485 0-7.577s-5.484-2.092-7.577 0z" fill="#edf4fc"/></g></g><g><g><path d="m158.038 68.242h-15.694c-2.684 0-4.86 2.176-4.86 4.86v14.324h20.554z" fill="#fc657e"/></g></g><g><g><path d="m23.054 37.514h-15.694c-2.684 0-4.86 2.176-4.86 4.86v14.324h20.554z" fill="#fc657e"/></g></g><g><g><path d="m118.705 225.692c-4.498-.838-8.043-4.31-8.898-8.716-.043-.221-.352-.221-.395 0-.855 4.406-4.4 7.879-8.898 8.716-.226.042-.226.345 0 .387 4.498.838 8.043 4.31 8.898 8.717.043.221.352.221.395 0 .855-4.406 4.4-7.879 8.898-8.717.226-.042.226-.345 0-.387z" fill="#fc657e"/></g></g><g><g><path d="m203.756 46.751c-3.125-.582-5.588-2.995-6.182-6.056-.03-.154-.244-.154-.274 0-.594 3.061-3.057 5.474-6.182 6.056-.157.029-.157.239 0 .269 3.125.582 5.588 2.995 6.182 6.056.03.154.244.154.274 0 .594-3.061 3.057-5.474 6.182-6.056.157-.029.157-.24 0-.269z" fill="#f5c84c"/></g></g><g><g><path d="m144.941 26.526h-2.33v-2.33c0-1.744-1.413-3.157-3.157-3.157s-3.157 1.413-3.157 3.157v2.33h-2.329c-1.744 0-3.157 1.413-3.157 3.157s1.413 3.157 3.157 3.157h2.329v2.33c0 1.744 1.413 3.157 3.157 3.157s3.157-1.413 3.157-3.157v-2.33h2.33c1.744 0 3.157-1.413 3.157-3.157s-1.413-3.157-3.157-3.157z" fill="#70d6f9"/></g></g><g><g><circle cx="160.662" cy="47.416" fill="#87d147" r="3.377"/></g></g><g><g><circle cx="82.662" cy="213.416" fill="#70d6f9" r="3.377"/></g></g><g><g><path d="m221.07 80.334h-50.243c-1.381 0-2.5-1.119-2.5-2.5s1.119-2.5 2.5-2.5h50.243c1.381 0 2.5 1.119 2.5 2.5s-1.119 2.5-2.5 2.5z"/></g></g><g><g><path d="m242.802 80.334h-9.943c-1.381 0-2.5-1.119-2.5-2.5s1.119-2.5 2.5-2.5h9.943c1.381 0 2.5 1.119 2.5 2.5s-1.119 2.5-2.5 2.5z"/></g></g><g><g><path d="m248.641 231.063h-106.297c-4.058 0-7.359-3.302-7.359-7.36v-136.277c0-1.381 1.119-2.5 2.5-2.5s2.5 1.119 2.5 2.5v136.278c0 1.301 1.059 2.36 2.359 2.36h106.297c1.301 0 2.359-1.059 2.359-2.36v-136.278c0-1.381 1.119-2.5 2.5-2.5s2.5 1.119 2.5 2.5v136.278c0 4.058-3.302 7.359-7.359 7.359z"/></g></g><g><g><path d="m86.086 49.606h-50.243c-1.381 0-2.5-1.119-2.5-2.5s1.119-2.5 2.5-2.5h50.243c1.381 0 2.5 1.119 2.5 2.5s-1.119 2.5-2.5 2.5z"/></g></g><g><g><path d="m107.817 49.606h-9.943c-1.381 0-2.5-1.119-2.5-2.5s1.119-2.5 2.5-2.5h9.943c1.381 0 2.5 1.119 2.5 2.5s-1.119 2.5-2.5 2.5z"/></g></g><g><g><path d="m113.656 200.335h-106.297c-4.058 0-7.359-3.302-7.359-7.36v-136.277c0-1.381 1.119-2.5 2.5-2.5s2.5 1.119 2.5 2.5v136.278c0 1.301 1.059 2.36 2.359 2.36h106.297c1.301 0 2.359-1.059 2.359-2.36v-136.278c0-1.381 1.119-2.5 2.5-2.5s2.5 1.119 2.5 2.5v136.278c.001 4.058-3.301 7.359-7.359 7.359z"/></g></g><g><g><path d="m253.5 89.926h-116.016c-1.381 0-2.5-1.119-2.5-2.5v-14.324c0-4.058 3.302-7.359 7.359-7.359h106.297c4.058 0 7.359 3.301 7.359 7.359v14.324c.001 1.381-1.118 2.5-2.499 2.5zm-113.516-5h111.016v-11.824c0-1.301-1.059-2.359-2.359-2.359h-106.297c-1.301 0-2.359 1.059-2.359 2.359v11.824z"/></g></g><g><g><path d="m118.516 59.198h-116.016c-1.381 0-2.5-1.119-2.5-2.5v-14.324c0-4.058 3.302-7.36 7.359-7.36h106.297c4.058 0 7.359 3.302 7.359 7.36v14.324c.001 1.381-1.119 2.5-2.499 2.5zm-113.516-5h111.016v-11.824c0-1.301-1.059-2.36-2.359-2.36h-106.298c-1.3 0-2.359 1.058-2.359 2.36z"/></g></g><g><g><path d="m195.492 193.54c-22.128 0-40.13-18.002-40.13-40.129s18.002-40.129 40.13-40.129c22.127 0 40.129 18.002 40.129 40.129s-18.002 40.129-40.129 40.129zm0-75.259c-19.371 0-35.13 15.759-35.13 35.129s15.759 35.129 35.13 35.129c19.37 0 35.129-15.759 35.129-35.129s-15.759-35.129-35.129-35.129z"/></g></g><g><g><path d="m60.508 162.812c-22.127 0-40.129-18.002-40.129-40.129 0-22.128 18.002-40.13 40.129-40.13 22.128 0 40.13 18.002 40.13 40.13 0 22.127-18.002 40.129-40.13 40.129zm0-75.26c-19.37 0-35.129 15.759-35.129 35.13s15.759 35.129 35.129 35.129c19.371 0 35.13-15.759 35.13-35.129s-15.759-35.13-35.13-35.13z"/></g></g><g><g><g><path d="m191.516 175.216c-2.19 0-4.249-.853-5.797-2.401l-12.743-12.742c-3.197-3.197-3.197-8.399 0-11.596 1.548-1.549 3.606-2.401 5.798-2.401s4.25.853 5.798 2.402l6.944 6.943 16.855-16.854c1.548-1.548 3.606-2.401 5.798-2.401s4.25.853 5.798 2.402c1.548 1.547 2.401 3.607 2.401 5.797s-.854 4.25-2.402 5.798l-22.653 22.652c-1.548 1.548-3.607 2.401-5.797 2.401zm-12.743-24.14c-.855 0-1.658.333-2.262.937-.605.604-.938 1.408-.938 2.262 0 .855.332 1.658.937 2.263l12.743 12.742h.001c1.207 1.208 3.314 1.208 4.521 0l22.654-22.652c.604-.605.938-1.408.938-2.263s-.333-1.658-.938-2.262c-1.208-1.21-3.316-1.208-4.524 0l-18.623 18.623c-.977.977-2.559.976-3.535 0l-8.713-8.712c-.603-.606-1.406-.938-2.261-.938z"/></g></g></g><g><g><path d="m73.919 143.951c-2.099 0-4.072-.817-5.556-2.302l-7.855-7.854-7.854 7.854c-3.062 3.063-8.047 3.063-11.112 0-3.063-3.064-3.063-8.049 0-11.112l7.855-7.855-7.855-7.855c-3.063-3.063-3.063-8.048 0-11.112 3.062-3.063 8.047-3.064 11.112 0l7.854 7.854 7.855-7.854c1.483-1.484 3.457-2.301 5.556-2.301s4.072.817 5.556 2.302c1.484 1.484 2.302 3.457 2.302 5.556s-.817 4.072-2.302 5.557l-7.854 7.854 7.854 7.855c1.484 1.484 2.302 3.457 2.302 5.556s-.817 4.072-2.302 5.556c-1.484 1.483-3.457 2.301-5.556 2.301zm-13.411-16.192c.663 0 1.299.263 1.768.732l9.623 9.623c1.08 1.079 2.961 1.079 4.041 0 .54-.54.837-1.258.837-2.021s-.297-1.481-.837-2.021l-9.622-9.623c-.977-.976-.977-2.559 0-3.535l9.622-9.623c.54-.54.837-1.258.837-2.021s-.297-1.48-.837-2.02c-1.08-1.08-2.961-1.08-4.041 0l-9.623 9.623c-.977.976-2.559.976-3.535 0l-9.622-9.622c-1.115-1.114-2.927-1.113-4.042 0-1.113 1.114-1.113 2.927 0 4.041l9.623 9.623c.469.469.732 1.104.732 1.768s-.264 1.299-.732 1.768l-9.623 9.623c-1.113 1.114-1.113 2.927 0 4.042 1.115 1.114 2.927 1.113 4.042 0l9.622-9.622c.468-.472 1.104-.735 1.767-.735z"/></g></g><g><g><path d="m158.038 89.206c-1.381 0-2.5-1.119-2.5-2.5v-17.834c0-1.381 1.119-2.5 2.5-2.5s2.5 1.119 2.5 2.5v17.834c0 1.38-1.119 2.5-2.5 2.5z"/></g></g><g><g><path d="m23.054 58.414c-1.381 0-2.5-1.119-2.5-2.5v-17.437c0-1.381 1.119-2.5 2.5-2.5s2.5 1.119 2.5 2.5v17.437c0 1.38-1.119 2.5-2.5 2.5z"/></g></g></g></g></svg>