<?xml version="1.0" encoding="utf-8"?>
<!-- Generator: Adobe Illustrator 19.1.1, SVG Export Plug-In . SVG Version: 6.00 Build 0)  -->
<svg version="1.1" id="Layer_1" xmlns="http://www.w3.org/2000/svg" xmlns:xlink="http://www.w3.org/1999/xlink" x="0px" y="0px"
	 viewBox="0 0 1200 1200" enable-background="new 0 0 1200 1200" xml:space="preserve">
<g>
	<g>
		<path fill="#D6BF9F" d="M910.167,1135.662H600H289.833c-16.739,0-31.893-6.785-42.862-17.754
			c-10.969-10.969-17.754-26.123-17.754-42.862V659.254V243.461c0-16.739,6.785-31.893,17.754-42.862s26.123-17.754,42.862-17.754
			H600h310.167c16.739,0,31.893,6.785,42.862,17.754s17.754,26.123,17.754,42.862v415.792v415.792
			c0,16.739-6.785,31.893-17.754,42.862C942.059,1128.877,926.905,1135.662,910.167,1135.662z"/>
		<path fill="#2E4C59" d="M928.721,1150H600H271.279c-15.549,0-29.649-6.325-39.862-16.538
			c-10.213-10.213-16.538-24.313-16.538-39.862V659.254V224.907c0-15.549,6.325-29.649,16.538-39.862
			c10.213-10.213,24.313-16.538,39.862-16.538H600h328.721c15.549,0,29.649,6.325,39.862,16.538
			c10.213,10.213,16.538,24.313,16.538,39.862v434.347V1093.6c0,15.549-6.325,29.649-16.538,39.862
			C958.37,1143.675,944.27,1150,928.721,1150z M271.279,197.186c-7.643,0-14.573,3.109-19.593,8.128
			c-5.02,5.019-8.128,11.95-8.128,19.593v434.347V1093.6c0,7.643,3.109,14.573,8.128,19.593c5.019,5.02,11.95,8.128,19.593,8.128
			H600h328.721c7.643,0,14.573-3.109,19.593-8.128c5.02-5.02,8.128-11.95,8.128-19.593V659.254V224.907
			c0-7.643-3.109-14.573-8.128-19.593c-5.019-5.02-11.95-8.128-19.593-8.128H600H271.279z"/>
	</g>
	<g opacity="0.35">
		<path fill="#2E4C59" d="M229.217,838.69v130.049v130.049c0,10.182,4.127,19.401,10.8,26.074s15.891,10.8,26.074,10.8H600h333.909
			c10.182,0,19.401-4.127,26.074-10.8s10.8-15.891,10.8-26.074V968.739V838.69H600H229.217z"/>
		<path fill="#2E4C59" d="M933.908,1150H600H266.092c-14.12,0-26.923-5.744-36.196-15.018s-15.017-22.077-15.017-36.195V968.738
			V838.689c0-3.96,1.605-7.545,4.2-10.14c2.595-2.595,6.18-4.2,10.14-4.2H600h370.781c3.96,0,7.545,1.605,10.14,4.2
			c2.595,2.595,4.2,6.18,4.2,10.14v130.049v130.049c0,14.118-5.743,26.921-15.017,36.195
			C960.831,1144.256,948.027,1150,933.908,1150z M243.558,853.029v122.879v122.879c0,6.212,2.527,11.845,6.607,15.926
			s9.714,6.608,15.927,6.608H600h333.908c6.213,0,11.847-2.528,15.927-6.608c4.08-4.081,6.607-9.714,6.607-15.926V975.908V853.029
			H600H243.558z"/>
	</g>
	<g>
		<polygon fill="#EAEEEF" points="903.371,1073.342 600,1073.342 296.629,1073.342 296.629,696.223 296.629,319.104 600,319.104 
			903.371,319.104 903.371,696.223 		"/>
		<path fill="#2E4C59" d="M903.372,1087.68H600H296.628c-3.96,0-7.545-1.605-10.14-4.2c-2.595-2.595-4.2-6.18-4.2-10.14V696.222
			V319.105c0-3.96,1.605-7.545,4.2-10.14c2.595-2.595,6.18-4.2,10.14-4.2H600h303.372c3.96,0,7.545,1.605,10.14,4.2
			c2.595,2.595,4.2,6.18,4.2,10.14v377.118v377.118c0,3.96-1.605,7.545-4.2,10.14C910.917,1086.075,907.332,1087.68,903.372,1087.68
			z M310.967,1059.001H600h289.033V696.222V333.444H600H310.967v362.778V1059.001z"/>
	</g>
	<g>
		<polygon fill="#FFFFFF" points="903.371,1033.116 600,1033.116 296.629,1033.116 296.629,655.997 296.629,278.878 600,278.878 
			903.371,278.878 903.371,655.997 		"/>
		<path fill="#2E4C59" d="M903.372,1047.457H600H296.628c-3.96,0-7.545-1.605-10.14-4.2c-2.595-2.595-4.2-6.18-4.2-10.14V655.996
			V278.876c0-3.96,1.605-7.545,4.2-10.14s6.18-4.2,10.14-4.2H600h303.372c3.96,0,7.545,1.605,10.14,4.2
			c2.595,2.595,4.2,6.18,4.2,10.14v377.121v377.121c0,3.96-1.605,7.545-4.2,10.14
			C910.917,1045.852,907.332,1047.457,903.372,1047.457z M310.967,1018.778H600h289.033V655.996V293.215H600H310.967v362.781
			V1018.778z"/>
	</g>
	<g>
		<polygon fill="#FFFFFF" points="903.371,991.214 600,991.214 296.629,991.214 296.629,614.095 296.629,236.976 600,236.976 
			903.371,236.976 903.371,614.095 		"/>
		<path fill="#2E4C59" d="M903.372,1005.553H600H296.628c-3.96,0-7.545-1.605-10.14-4.2c-2.595-2.595-4.2-6.18-4.2-10.14V614.096
			V236.978c0-3.96,1.605-7.545,4.2-10.14c2.595-2.595,6.18-4.2,10.14-4.2H600h303.372c3.96,0,7.545,1.605,10.14,4.2
			c2.595,2.595,4.2,6.18,4.2,10.14v377.118v377.118c0,3.96-1.605,7.545-4.2,10.14
			C910.917,1003.948,907.332,1005.553,903.372,1005.553z M310.967,976.874H600h289.033V614.096V251.317H600H310.967v362.778V976.874
			z"/>
	</g>
	<g>
		<g>
			<path fill="#EAEEEF" d="M711.581,129.707L711.581,129.707L711.581,129.707c0-18.051-7.316-34.393-19.146-46.222
				c-11.829-11.829-28.171-19.146-46.222-19.146H600h-46.214c-18.051,0-34.392,7.316-46.222,19.146
				c-11.829,11.829-19.146,28.171-19.146,46.222v0v0h-31.963h-31.963c-3.423,0-6.522,1.388-8.766,3.631s-3.631,5.342-3.631,8.766
				v52.971v52.971c0,3.423,1.388,6.522,3.631,8.766s5.342,3.631,8.766,3.631H600h175.507c3.423,0,6.522-1.388,8.766-3.631
				s3.631-5.342,3.631-8.766v-52.971v-52.971c0-3.423-1.388-6.522-3.631-8.766s-5.342-3.631-8.766-3.631h-31.963H711.581z"/>
			<path fill="#2E4C59" d="M775.508,274.781H600H424.492c-7.371,0-14.055-2.998-18.896-7.839s-7.839-11.525-7.839-18.896v-52.972
				v-52.972c0-7.371,2.998-14.055,7.839-18.896c4.841-4.841,11.525-7.839,18.896-7.839h25.44h25.44
				c3.386-18.566,13.225-34.907,27.1-46.608S534.257,50,553.785,50H600h46.215c19.528,0,37.438,7.059,51.313,18.76
				c13.875,11.7,23.714,28.042,27.1,46.608h25.44h25.44c7.371,0,14.055,2.998,18.896,7.839c4.841,4.841,7.839,11.525,7.839,18.896
				v52.972v52.972c0,7.371-2.998,14.055-7.839,18.896S782.879,274.781,775.508,274.781z M426.436,246.102H600h173.564v-51.028
				v-51.028h-30.992H711.58c-3.96,0-7.545-1.605-10.14-4.2c-2.595-2.595-4.2-6.18-4.2-10.14c0-14.068-5.722-26.825-14.962-36.065
				s-21.996-14.963-36.063-14.963H600h-46.215c-14.068,0-26.824,5.723-36.063,14.963s-14.962,21.997-14.962,36.065
				c0,3.96-1.605,7.545-4.2,10.14c-2.595,2.595-6.18,4.2-10.14,4.2h-30.992h-30.992v51.028V246.102z"/>
		</g>
		<g opacity="0.2">
			<path fill="#2E4C59" d="M412.097,206.806v20.619v20.619c0,3.423,1.388,6.522,3.631,8.766c2.243,2.243,5.342,3.631,8.766,3.631
				H600h175.507c3.423,0,6.522-1.387,8.766-3.631c2.243-2.243,3.631-5.342,3.631-8.766v-20.619v-20.619H600H412.097z"/>
			<path fill="#2E4C59" d="M775.508,274.781H600H424.492c-7.371,0-14.055-2.998-18.896-7.839s-7.839-11.525-7.839-18.896v-20.621
				v-20.621c0-3.96,1.605-7.545,4.2-10.14s6.18-4.2,10.14-4.2H600h187.904c3.96,0,7.545,1.605,10.14,4.2
				c2.595,2.595,4.2,6.18,4.2,10.14v20.621v20.621c0,7.371-2.998,14.055-7.839,18.896S782.879,274.781,775.508,274.781z
				 M426.436,246.102H600h173.564v-12.48v-12.48H600H426.436v12.48V246.102z"/>
		</g>
		<g>
			<g>
				<polyline fill="#FDE9A4" points="493.324,129.707 517.152,129.707 540.981,129.707 				"/>
				<path fill="#2E4C59" d="M540.98,144.046h-23.828h-23.828c-3.96,0-7.545-1.605-10.14-4.2c-2.595-2.595-4.2-6.18-4.2-10.14
					c0-3.96,1.605-7.545,4.2-10.14s6.18-4.2,10.14-4.2h23.828h23.828c3.96,0,7.545,1.605,10.14,4.2c2.595,2.595,4.2,6.18,4.2,10.14
					c0,3.96-1.605,7.545-4.2,10.14C548.525,142.442,544.94,144.046,540.98,144.046z"/>
			</g>
			<g>
				<polyline fill="#FDE9A4" points="659.019,129.707 682.847,129.707 706.676,129.707 				"/>
				<path fill="#2E4C59" d="M706.676,144.046h-23.828H659.02c-3.96,0-7.545-1.605-10.14-4.2c-2.595-2.595-4.2-6.18-4.2-10.14
					c0-3.96,1.605-7.545,4.2-10.14c2.595-2.595,6.18-4.2,10.14-4.2h23.828h23.828c3.96,0,7.545,1.605,10.14,4.2
					c2.595,2.595,4.2,6.18,4.2,10.14c0,3.96-1.605,7.545-4.2,10.14C714.221,142.442,710.636,144.046,706.676,144.046z"/>
			</g>
		</g>
	</g>
	<g>
		<path fill="#2E4C59" d="M787.904,375.348H600H412.096c-3.96,0-7.545-1.605-10.14-4.2s-4.2-6.18-4.2-10.14
			c0-3.96,1.605-7.545,4.2-10.14c2.595-2.595,6.18-4.2,10.14-4.2H600h187.904c3.96,0,7.545,1.605,10.14,4.2
			c2.595,2.595,4.2,6.18,4.2,10.14c0,3.96-1.605,7.545-4.2,10.14C795.449,373.743,791.864,375.348,787.904,375.348z"/>
		<path fill="#2E4C59" d="M787.904,479.936H600H412.096c-3.96,0-7.545-1.605-10.14-4.2s-4.2-6.18-4.2-10.14s1.605-7.545,4.2-10.14
			s6.18-4.2,10.14-4.2H600h187.904c3.96,0,7.545,1.605,10.14,4.2c2.595,2.595,4.2,6.18,4.2,10.14s-1.605,7.545-4.2,10.14
			C795.449,478.331,791.864,479.936,787.904,479.936z"/>
		<path fill="#2E4C59" d="M787.904,584.524H600H412.096c-3.96,0-7.545-1.605-10.14-4.2c-2.595-2.595-4.2-6.18-4.2-10.14
			s1.605-7.545,4.2-10.14c2.595-2.595,6.18-4.2,10.14-4.2H600h187.904c3.96,0,7.545,1.605,10.14,4.2c2.595,2.595,4.2,6.18,4.2,10.14
			s-1.605,7.545-4.2,10.14C795.449,582.919,791.864,584.524,787.904,584.524z"/>
		<path fill="#2E4C59" d="M787.904,689.106H600H412.096c-3.96,0-7.545-1.605-10.14-4.2c-2.595-2.595-4.2-6.18-4.2-10.14
			s1.605-7.545,4.2-10.14c2.595-2.595,6.18-4.2,10.14-4.2H600h187.904c3.96,0,7.545,1.605,10.14,4.2c2.595,2.595,4.2,6.18,4.2,10.14
			s-1.605,7.545-4.2,10.14C795.449,687.501,791.864,689.106,787.904,689.106z"/>
		<path fill="#2E4C59" d="M787.904,793.694H600H412.096c-3.96,0-7.545-1.605-10.14-4.2c-2.595-2.595-4.2-6.18-4.2-10.14
			c0-3.96,1.605-7.545,4.2-10.14s6.18-4.2,10.14-4.2H600h187.904c3.96,0,7.545,1.605,10.14,4.2c2.595,2.595,4.2,6.18,4.2,10.14
			c0,3.96-1.605,7.545-4.2,10.14C795.449,792.089,791.864,793.694,787.904,793.694z"/>
		<path fill="#2E4C59" d="M787.904,898.282H600H412.096c-3.96,0-7.545-1.605-10.14-4.2c-2.595-2.595-4.2-6.18-4.2-10.14
			s1.605-7.545,4.2-10.14c2.595-2.595,6.18-4.2,10.14-4.2H600h187.904c3.96,0,7.545,1.605,10.14,4.2c2.595,2.595,4.2,6.18,4.2,10.14
			s-1.605,7.545-4.2,10.14C795.449,896.677,791.864,898.282,787.904,898.282z"/>
	</g>
</g>
</svg>
