<svg id="Layer_5" enable-background="new 0 0 64 64" height="512" viewBox="0 0 64 64" width="512" xmlns="http://www.w3.org/2000/svg"><g><g><g><path d="m24 56v2h16v-2h3 8c.83 0 1.58.34 2.12.88s.88 1.29.88 2.12c0 1.66-1.34 3-3 3h-29.17c-.53 0-1.04-.21-1.42-.59l-.82-.82c-.38-.38-.89-.59-1.42-.59h-5.17c-.55 0-1.05-.22-1.41-.59-.37-.36-.59-.86-.59-1.41 0-1.1.9-2 2-2h8z" fill="#aab2bd"/></g><g><path d="m4 27h24v10h-24c-1.1 0-2-.9-2-2v-6c0-1.1.9-2 2-2z" fill="#fcd770"/></g><g><path d="m36 18h24c1.1 0 2 .9 2 2v6c0 1.1-.9 2-2 2h-24-4v-10z" fill="#fcd770"/></g><g><path d="m36 34h24c1.1 0 2 .9 2 2v6c0 1.1-.9 2-2 2h-24z" fill="#fcd770"/></g><g><path d="m36 6v2h-8v-2c0-1.1.45-2.1 1.17-2.83.73-.72 1.73-1.17 2.83-1.17 2.21 0 4 1.79 4 4z" fill="#cf9e76"/></g><g><path d="m36 44v10h-8v-17-10-15h8v6h-4v10h4v6z" fill="#cf9e76"/></g><g><path d="m38 9v2c0 .55-.45 1-1 1h-1-8-1c-.55 0-1-.45-1-1v-2c0-.55.45-1 1-1h1 8 1c.55 0 1 .45 1 1z" fill="#b27946"/></g><g><path d="m40 56v2h-16v-2c0-1.1.9-2 2-2h2 8 2c1.1 0 2 .9 2 2z" fill="#b27946"/></g><g><path d="m22 50-1 6h-8l-1-6 3 2 2-4 2 4z" fill="#b4dd7f"/></g><g><path d="m52 50-1 6h-8l-1-6 3 2 2-4 2 4z" fill="#b4dd7f"/></g></g><g><path d="m60 29c1.654 0 3-1.346 3-3v-6c0-1.654-1.346-3-3-3h-23v-4c1.103 0 2-.897 2-2v-2c0-1.103-.897-2-2-2v-1c0-2.757-2.243-5-5-5s-5 2.243-5 5v1c-1.103 0-2 .897-2 2v2c0 1.103.897 2 2 2v13h-23c-1.654 0-3 1.346-3 3v6c0 1.654 1.346 3 3 3h23v15h-1c-1.302 0-2.402.839-2.816 2h-1.004l1.185-7.112-3.978 2.652-2.387-4.776-2.388 4.775-3.978-2.652 1.223 7.341c-1.088.451-1.857 1.522-1.857 2.772 0 1.654 1.346 3 3 3h5.171c.267 0 .519.104.708.293l.828.828c.566.567 1.32.879 2.122.879h29.171c2.206 0 4-1.794 4-4 0-1.804-1.208-3.314-2.851-3.812l1.217-7.301-3.978 2.652-2.388-4.775-2.388 4.775-3.978-2.652 1.186 7.113h-1.004c-.414-1.161-1.514-2-2.816-2h-1v-8h23c1.654 0 3-1.346 3-3v-6c0-1.654-1.346-3-3-3h-23v-4zm-31-23c0-1.654 1.346-3 3-3s3 1.346 3 3v1h-6zm-2 3h10l.001 2h-10.001zm8 20v24h-6v-40h6v4h-4v12zm-31 7c-.551 0-1-.449-1-1v-6c0-.551.449-1 1-1h23v8zm11.388 17.46 1.612-3.224 1.612 3.225 2.022-1.348-.481 2.887h-6.306l-.481-2.888zm30 0 1.612-3.224 1.612 3.225 2.022-1.348-.481 2.887h-6.306l-.481-2.888zm-4.388 5.54v-2h10c1.103 0 2 .897 2 2s-.897 2-2 2h-29.171c-.267 0-.519-.104-.708-.293l-.828-.828c-.566-.567-1.32-.879-2.122-.879h-5.171c-.551 0-1-.449-1-1s.449-1 1-1h10v2zm-3-4c.551 0 1 .449 1 1v1h-14v-1c0-.551.449-1 1-1zm22-20c.551 0 1 .449 1 1v6c0 .551-.449 1-1 1h-23v-8zm-27-8v-8h27c.551 0 1 .449 1 1v6c0 .551-.449 1-1 1z"/><path d="m54.293 20.707 1.293 1.293h-20.586v2h20.586l-1.293 1.293 1.414 1.414 3.707-3.707-3.707-3.707z"/><path d="m54.293 41.293 1.414 1.414 3.707-3.707-3.707-3.707-1.414 1.414 1.293 1.293h-16.586v2h16.586z"/><path d="m9.707 29.707-1.414-1.414-3.707 3.707 3.707 3.707 1.414-1.414-1.293-1.293h16.586v-2h-16.586z"/></g></g></svg>