<svg id="Layer_35" enable-background="new 0 0 64 64" height="512" viewBox="0 0 64 64" width="512" xmlns="http://www.w3.org/2000/svg"><path d="m58 46h-1l-6-4v4h-1-8c-2.21 0-4 1.79-4 4v8c0 2.21 1.79 4 4 4h8 8c2.21 0 4-1.79 4-4v-8c0-2.21-1.79-4-4-4z" fill="#e6e9ed"/><circle cx="23" cy="23" fill="#69d6f4" r="21"/><path d="m36.22 6.69c.54-1.57 2.03-2.69 3.78-2.69h18c2.21 0 4 1.79 4 4v12c0 2.21-1.79 4-4 4h-1l-6 4v-4h-7.02-3.98c-1.01 0-1.93-.38-2.64-1-.83-.73-1.36-1.8-1.36-3v-7-5c0-.46.08-.9.22-1.31z" fill="#e6e9ed"/><path d="m15 62h-5v-10c0-4.11 2.48-7.64 6.03-9.18 1.22-.53 2.56-.82 3.97-.82h1.67l-.67 10 2 3 2-3-.67-10.05 2.05-.29c3-.43 5.78-1.82 7.92-3.96l4.7-4.7 4.17-4.17.01-.01c.53-.52 1.24-.82 1.99-.82.78 0 1.49.32 2 .83s.83 1.22.83 2c0 .75-.3 1.47-.83 2l-15.34 15.34c-.53.53-.83 1.25-.83 2v11.83z" fill="#fcd770"/><path d="m24 42 .33-.05.67 10.05-2 3-2-3 .67-10h1.33z" fill="#ff826e"/><path d="m30 35c0 3.87-3.13 7-7 7s-7-3.13-7-7c0-.69.1-1.37.29-2 .86-2.89 3.53-5 6.71-5s5.85 2.11 6.71 5c.19.63.29 1.31.29 2z" fill="#f0d0b4"/><path d="m42 9h6v4h-4v2h4v4h-6v2h14v-2h-6v-4h4v-2h-4v-4h6v-2h-14z"/><path d="m52 15.586h2v2.828h-2z" transform="matrix(.707 -.707 .707 .707 3.503 42.456)"/><path d="m58 3h-18c-1.712 0-3.223.867-4.125 2.183-3.731-2.696-8.25-4.183-12.875-4.183-12.131 0-22 9.869-22 22 0 8.617 5.05 16.385 12.754 19.956-2.869 1.988-4.754 5.298-4.754 9.044v11h23v-12.829c0-.488.19-.947.536-1.293l15.343-15.343c.723-.723 1.121-1.684 1.121-2.706 0-2.112-1.717-3.829-3.829-3.829-.188 0-.371.028-.553.054.127-.679.223-1.364.285-2.054h5.097v4.869l7.303-4.869h.697c2.757 0 5-2.243 5-5v-12c0-2.757-2.243-5-5-5zm-24.022 19c-.098-2.994-.631-5.658-1.409-8h2.431v6c0 .712.154 1.386.424 2zm-9.999 29.728-.979 1.469-.979-1.47.581-8.727h.794zm-.979-10.728c-3.309 0-6-2.691-6-6s2.691-6 6-6 6 2.691 6 6-2.691 6-6 6zm7.931-7h5.655l-2.993 2.993c-1.202 1.202-2.641 2.152-4.206 2.804 1.008-1.339 1.613-2.996 1.613-4.797 0-.339-.028-.672-.069-1zm-.52-2c-1.19-2.928-4.061-5-7.411-5s-6.221 2.072-7.411 5h-.023c-.924-2.538-1.443-5.221-1.543-8h17.932c-.1 2.779-.613 5.462-1.537 8zm-27.372-8h8.983c.093 2.765.568 5.446 1.422 8h-8.299c-1.235-2.447-1.963-5.165-2.106-8zm.012-2c.143-2.867.884-5.573 2.113-8h8.266c-.778 2.342-1.31 5.006-1.409 8zm10.993 0c.111-3.015.691-5.689 1.539-8h14.833c.848 2.311 1.428 4.985 1.539 8zm8.956-18.725c1.261 1.052 4.365 3.975 6.581 8.725h-13.162c2.216-4.75 5.32-7.673 6.581-8.725zm12 4.725v4h-3.182c-1.722-4.084-4.117-6.999-5.887-8.768 3.32.494 6.48 1.82 9.161 3.858-.055.296-.092.598-.092.91zm-14.94-4.759c-1.769 1.77-4.158 4.682-5.878 8.759h-7.868c3.068-4.637 8.015-7.909 13.746-8.759zm-13.742 30.759h8.752c-.042.328-.07.661-.07 1 0 2.498 1.152 4.73 2.951 6.199-.658.125-1.294.312-1.905.549-4.072-1.512-7.435-4.269-9.728-7.748zm40.682-3.171c0 .488-.19.947-.536 1.293l-15.342 15.342c-.724.724-1.122 1.685-1.122 2.707v10.829h-14v-12h-2v12h-3v-9c0-4.962 4.038-9 9-9h.598l-.618 9.272 3.02 4.531 3.021-4.531-.633-9.465 1.135-.158c3.192-.456 6.205-1.963 8.485-4.243l8.872-8.872c.344-.344.803-.534 1.291-.534 1.009 0 1.829.82 1.829 1.829zm-4.716-2.527-3.698 3.698h-6.029c.854-2.553 1.328-5.234 1.42-8h3.053c.833.62 1.854 1 2.969 1h2.898c-.11 1.118-.317 2.223-.613 3.302zm18.716-8.302c0 1.654-1.346 3-3 3h-1.303l-4.697 3.131v-3.131h-12c-1.654 0-3-1.346-3-3v-12c0-1.654 1.346-3 3-3h18c1.654 0 3 1.346 3 3z"/><path d="m58 45h-.697l-7.303-4.869v4.869h-8c-2.757 0-5 2.243-5 5v8c0 2.757 2.243 5 5 5h16c2.757 0 5-2.243 5-5v-8c0-2.757-2.243-5-5-5zm3 13c0 1.654-1.346 3-3 3h-16c-1.654 0-3-1.346-3-3v-8c0-1.654 1.346-3 3-3h10v-3.131l4.697 3.131h1.303c1.654 0 3 1.346 3 3z"/><path d="m18 18h2v2h-2z"/><path d="m22 18h2v2h-2z"/><path d="m26 18h2v2h-2z"/><path d="m51.485 53h3.515v-2h-3.965c-.014-.176-.035-.351-.035-.529v-1.471h-2v1.471c0 .178-.021.353-.035.529h-3.965v2h3.515c-.557 1.428-1.569 2.666-2.914 3.473l-1.116.669 1.029 1.715 1.116-.669c.922-.553 1.713-1.272 2.37-2.092v2.904h2v-2.904c.657.82 1.448 1.539 2.37 2.092l1.116.669 1.029-1.715-1.116-.669c-1.345-.807-2.357-2.045-2.914-3.473z"/></svg>