<svg id="_x33_0" enable-background="new 0 0 64 64" height="512" viewBox="0 0 64 64" width="512" xmlns="http://www.w3.org/2000/svg"><g><g><g><path d="m39.85 24c-1.02 0-1.85-.83-1.85-1.85v-3.44c-1.47-1.66-3.61-2.71-6-2.71-4.42 0-8 3.58-8 8s3.58 8 8 8c1.46 0 2.82-.39 4-1.07v-1.08c0-1.02.83-1.85 1.85-1.85.33 0 .65.09.93.25.77-1.23 1.22-2.69 1.22-4.25v-.01c-.05.01-.1.01-.15.01z" fill="#ffeaa7"/></g><g><path d="m38 54v8h-12v-8c0-1.66.67-3.16 1.76-4.24 1.08-1.09 2.58-1.76 4.24-1.76 3.31 0 6 2.69 6 6z" fill="#b4dd7f"/></g><g><path d="m18 48h14c-1.66 0-3.16.67-4.24 1.76-1.09 1.08-1.76 2.58-1.76 4.24v8h-16c.47-5.7 3.45-10.8 7.97-14.03z" fill="#b4dd7f"/></g><g><circle cx="32" cy="54" fill="#ffeaa7" r="2"/></g><g><path d="m32 36c1.4 0 2.75-.24 4-.68v1.68l-1.66 1.66c-1.5 1.5-2.34 3.53-2.34 5.65v3.69h-14l-.03-.03c.65-.46 1.33-.88 2.03-1.26v-6.26l-2 .44v-4.89c0-1.1-.9-2-2-2h-8v-4h-2.31c-.93 0-1.69-.76-1.69-1.69 0-.2.04-.41.11-.6l4.51-11.72v-.01c.12.02.25.02.38.02h14.05c-1.9 2.12-3.05 4.92-3.05 8 0 6.63 5.37 12 12 12z" fill="#e6e9ed"/></g><g><path d="m18 36v4.89l-4.52 1c-.32.07-.65.11-.97.11-2.49 0-4.51-2.02-4.51-4.51v-3.49h8c1.1 0 2 .9 2 2z" fill="#ff826e"/></g><g><path d="m13.9 6h24.1v7.61c-1.76-1.03-3.81-1.61-6-1.61-3.56 0-6.75 1.54-8.95 4h-14.05c-.13 0-.26 0-.38-.02-1.79-.09-3.38-.84-4.57-2.03-1.27-1.27-2.05-3.01-2.05-4.95s.78-3.68 2.05-4.95 3.01-2.05 4.95-2.05c1.38 0 2.63.56 3.54 1.46.68.68 1.16 1.56 1.36 2.54z" fill="#656d78"/></g><g><path d="m23.05 16c2.2-2.46 5.39-4 8.95-4 2.19 0 4.24.58 6 1.61v5.1c-1.47-1.66-3.61-2.71-6-2.71-4.42 0-8 3.58-8 8s3.58 8 8 8c1.46 0 2.82-.39 4-1.07v4.39c-1.25.44-2.6.68-4 .68-6.63 0-12-5.37-12-12 0-3.08 1.15-5.88 3.05-8z" fill="#fcd770"/></g><g><path d="m43.32 20c.44 1.25.68 2.6.68 4 0 3.05-1.14 5.84-3.02 7.96l-1.47-2.94c-.16-.33-.42-.59-.73-.77.77-1.23 1.22-2.69 1.22-4.25v-.01c.74-.11 1.24-.48 1.51-1.01l1.49-2.98z" fill="#fcd770"/></g><g><circle cx="32" cy="24" fill="#ccd1d9" r="2"/></g><g><path d="m61 20h-17.68-.32l-1.49 2.98c-.27.53-.77.9-1.51 1.01-.05.01-.1.01-.15.01-1.02 0-1.85-.83-1.85-1.85v-3.44-5.1-7.61-1c0-.55.45-1 1-1h22c.55 0 1 .45 1 1v14c0 .55-.45 1-1 1z" fill="#f0d0b4"/></g><g><path d="m41 32h20c.55 0 1 .45 1 1v14c0 .55-.45 1-1 1h-24c-.55 0-1-.45-1-1v-10-1.68-4.39-1.08c0-1.02.83-1.85 1.85-1.85.33 0 .65.09.93.25.31.18.57.44.73.77l1.47 2.94z" fill="#f0d0b4"/></g></g><g><path d="m63 19v-14c0-1.103-.897-2-2-2h-22c-1.103 0-2 .897-2 2h-22.35c-.826-2.327-3.043-4-5.65-4-4.411 0-8 3.589-8 8 0 3.805 2.673 6.992 6.238 7.798l-4.059 10.551c-.119.309-.179.633-.179.964 0 1.481 1.206 2.687 2.687 2.687h1.313v6.495c0 3.035 2.47 5.505 5.505 5.505.401 0 .803-.044 1.194-.131l5.3-1.178v4.447c-5.626 3.282-9.447 9.184-9.997 15.78l-.089 1.082h30.087v-9c0-1.965-.816-3.74-2.124-5.013.042.003.081.013.124.013h24c1.103 0 2-.897 2-2v-14c0-1.103-.897-2-2-2h-18.058c1.331-2.079 2.058-4.5 2.058-7 0-1.018-.126-2.021-.357-3h16.357c1.103 0 2-.897 2-2zm-24-14h22v14h-18.618l-1.763 3.527c-.146.292-.439.473-.765.473-.471 0-.854-.383-.854-.854zm-9.816 18h-4.104c.441-3.059 2.861-5.48 5.92-5.92v4.104c-.847.302-1.514.969-1.816 1.816zm0 2c.302.847.969 1.514 1.816 1.816v4.104c-3.059-.441-5.48-2.861-5.92-5.92zm2.816 0c-.551 0-1-.449-1-1s.449-1 1-1 1 .449 1 1-.449 1-1 1zm0-10c-4.962 0-9 4.038-9 9s4.038 9 9 9c1.028 0 2.04-.193 3-.533v2.112c-.972.275-1.977.421-3 .421-6.065 0-11-4.935-11-11s4.935-11 11-11c1.747 0 3.457.435 5 1.225v2.307c-1.468-.982-3.201-1.532-5-1.532zm-29-6c0-3.309 2.691-6 6-6 2.206 0 4 1.794 4 4s-1.794 4-4 4c-1.103 0-2-.897-2-2s.897-2 2-2v-2c-2.206 0-4 1.794-4 4s1.794 4 4 4c3.309 0 6-2.691 6-6h22v5c-1.576-.656-3.277-1-5-1-3.675 0-6.992 1.54-9.359 4h-13.641c-3.309 0-6-2.691-6-6zm10.266 31.917c-.25.055-.506.083-.761.083-1.933 0-3.505-1.572-3.505-3.505v-2.495h7c.551 0 1 .449 1 1v4.087zm11.734 20.083h-13.88c.937-6.456 5.346-12.031 11.478-14.389l.479-.185c1.15-.443 1.923-1.568 1.923-2.8v-2.626h-2v2.626c0 .411-.258.786-.641.933l-.479.185c-.299.115-.589.247-.88.375v-3.873l.111-.025c1.023-.227 1.864-.985 2.195-1.979l.642-1.926-1.897-.633-.642 1.926c-.11.332-.391.584-.731.66l-1.678.373v-3.642c0-1.654-1.346-3-3-3h-7v-4h-3.313c-.379 0-.687-.308-.687-.687 0-.084.016-.168.045-.247l4.257-11.066h11.761c-1.3 2.023-2.063 4.422-2.063 7 0 7.168 5.832 13 13 13 .993 0 1.971-.121 2.928-.342l-1.291 1.291c-1.7 1.7-2.636 3.96-2.636 6.364v2.766c-3.387.488-6 3.401-6 6.92v7.001zm12-7v7h-10v-7c0-2.757 2.243-5 5-5s5 2.243 5 5zm-4-6.92v-2.766c0-1.844.711-3.578 2-4.894v7.58c0 .268.055.524.151.758-.664-.337-1.387-.568-2.151-.678zm2-17.226v.456c-.633.301-1.305.513-2 .613v-4.108c1.161-.414 2-1.514 2-2.816s-.839-2.402-2-2.816v-4.103c1.515.219 2.921.931 4 2.035v3.03c0 1.253.817 2.308 1.941 2.691-.093.775-.317 1.523-.658 2.223-.143-.022-.282-.06-.43-.06-1.573.001-2.853 1.281-2.853 2.855zm26 17.146h-24v-17.146c0-.471.383-.854.854-.854.326 0 .619.181.764.472l1.764 3.528h20.618zm-19.843-16.923-.75-1.5c-.102-.204-.236-.381-.378-.55.513-1.022.822-2.127.918-3.271.618-.258 1.147-.708 1.46-1.334l.478-.956c.071.507.115 1.017.115 1.534 0 2.178-.653 4.284-1.843 6.077z"/><path d="m45 15h2v2h2v-7c0-1.654-1.346-3-3-3s-3 1.346-3 3v7h2zm1-6c.551 0 1 .449 1 1v3h-2v-3c0-.551.449-1 1-1z"/><path d="m57 14c0-.768-.29-1.469-.766-2 .476-.531.766-1.232.766-2 0-1.654-1.346-3-3-3h-3v10h3c1.654 0 3-1.346 3-3zm-4-5h1c.551 0 1 .449 1 1s-.449 1-1 1h-1zm0 4h1c.551 0 1 .449 1 1s-.449 1-1 1h-1z"/><path d="m53 35h-2v4h-4v-4h-2v10h8zm-6 8v-2h4v2z"/><path d="m41 43h2v2h-2z"/><path d="m41 35h2v6h-2z"/><path d="m55 43h2v2h-2z"/><path d="m55 35h2v6h-2z"/><path d="m13 25c-1.103 0-2-.897-2-2h-2c0 2.206 1.794 4 4 4s4-1.794 4-4h-2c0 1.103-.897 2-2 2z"/><path d="m32 51c-1.654 0-3 1.346-3 3s1.346 3 3 3 3-1.346 3-3-1.346-3-3-3zm0 4c-.551 0-1-.449-1-1s.449-1 1-1 1 .449 1 1-.449 1-1 1z"/><path d="m27 39h2v2h-2z"/><path d="m27 43h2v2h-2z"/></g></g></svg>